<svg width="20" height="10" viewBox="0 0 20 10" fill="none" xmlns="http://www.w3.org/2000/svg">
<path d="M1.52201e-05 0.885796C-0.000619922 0.769891 0.0203972 0.654994 0.061861 0.547693C0.103325 0.440392 0.164419 0.342797 0.24164 0.260506C0.319098 0.17796 0.411247 0.112442 0.512779 0.0677305C0.614311 0.023019 0.723215 -8.42615e-07 0.833206 -8.37807e-07C0.943197 -8.32999e-07 1.0521 0.0230191 1.15363 0.0677305C1.25516 0.112442 1.34731 0.17796 1.42477 0.260506L8.23194 7.45574C8.70061 7.95052 9.33591 8.22842 9.9983 8.22842C10.6607 8.22842 11.296 7.95052 11.7647 7.45574L18.5718 0.260507C18.7287 0.0946693 18.9415 0.00150294 19.1634 0.00150295C19.3853 0.00150296 19.5981 0.0946694 19.755 0.260507C19.9119 0.426344 20 0.651267 20 0.885796C20 1.12033 19.9119 1.34525 19.755 1.51109L12.9478 8.70632C12.5608 9.1164 12.1011 9.44175 11.595 9.66374C11.0889 9.88573 10.5463 10 9.9983 10C9.45034 10 8.90775 9.88573 8.40163 9.66374C7.89551 9.44175 7.43579 9.1164 7.04881 8.70632L0.24164 1.51109C0.164419 1.42879 0.103325 1.3312 0.061861 1.2239C0.0203971 1.1166 -0.000619932 1.0017 1.52201e-05 0.885796Z" fill="#5C5C5C"/>
</svg>
