<svg width="104" height="104" viewBox="0 0 104 104" fill="none" xmlns="http://www.w3.org/2000/svg">
<g clip-path="url(#clip0_199_3580)">
<path d="M82.3333 0H21.6667C15.9224 0.00688072 10.4154 2.29182 6.35362 6.35362C2.29182 10.4154 0.00688072 15.9224 0 21.6667L0 82.3333C0.00688072 88.0776 2.29182 93.5846 6.35362 97.6464C10.4154 101.708 15.9224 103.993 21.6667 104H82.3333C88.0776 103.993 93.5846 101.708 97.6464 97.6464C101.708 93.5846 103.993 88.0776 104 82.3333V21.6667C103.993 15.9224 101.708 10.4154 97.6464 6.35362C93.5846 2.29182 88.0776 0.00688072 82.3333 0V0ZM21.6667 8.66667H82.3333C85.7812 8.66667 89.0878 10.0363 91.5257 12.4743C93.9637 14.9123 95.3333 18.2189 95.3333 21.6667V82.3333C95.3259 84.2638 94.8814 86.1675 94.0333 87.9017L54.327 48.1953C52.315 46.1828 49.9262 44.5863 47.2971 43.4971C44.668 42.4079 41.8501 41.8473 39.0043 41.8473C36.1586 41.8473 33.3406 42.4079 30.7115 43.4971C28.0824 44.5863 25.6937 46.1828 23.6817 48.1953L8.66667 63.206V21.6667C8.66667 18.2189 10.0363 14.9123 12.4743 12.4743C14.9123 10.0363 18.2189 8.66667 21.6667 8.66667ZM21.6667 95.3333C18.2189 95.3333 14.9123 93.9637 12.4743 91.5257C10.0363 89.0878 8.66667 85.7812 8.66667 82.3333V75.4607L29.8047 54.3227C31.0119 53.1146 32.4454 52.1563 34.0232 51.5025C35.601 50.8486 37.2921 50.5121 39 50.5121C40.7079 50.5121 42.399 50.8486 43.9768 51.5025C45.5546 52.1563 46.9881 53.1146 48.1953 54.3227L87.9017 94.0333C86.1675 94.8814 84.2638 95.3259 82.3333 95.3333H21.6667Z" fill="#BEBEBE"/>
<path d="M69.3341 45.4984C72.3338 45.4984 75.2662 44.6089 77.7603 42.9423C80.2544 41.2758 82.1984 38.9071 83.3463 36.1357C84.4942 33.3644 84.7946 30.3149 84.2094 27.3728C83.6242 24.4308 82.1797 21.7284 80.0586 19.6073C77.9375 17.4862 75.2351 16.0417 72.293 15.4565C69.351 14.8713 66.3015 15.1716 63.5301 16.3195C60.7588 17.4675 58.3901 19.4114 56.7235 21.9056C55.057 24.3997 54.1675 27.332 54.1675 30.3317C54.1675 34.3542 55.7654 38.2119 58.6097 41.0562C61.454 43.9005 65.3117 45.4984 69.3341 45.4984ZM69.3341 23.8317C70.6197 23.8317 71.8764 24.2129 72.9454 24.9272C74.0143 25.6414 74.8474 26.6566 75.3394 27.8443C75.8313 29.032 75.9601 30.3389 75.7093 31.5998C75.4584 32.8607 74.8394 34.0189 73.9303 34.9279C73.0213 35.837 71.8631 36.456 70.6022 36.7068C69.3414 36.9576 68.0344 36.8289 66.8467 36.3369C65.659 35.845 64.6438 35.0118 63.9296 33.9429C63.2154 32.874 62.8341 31.6173 62.8341 30.3317C62.8341 28.6078 63.519 26.9545 64.738 25.7355C65.9569 24.5165 67.6102 23.8317 69.3341 23.8317Z" fill="#BEBEBE"/>
</g>
<defs>
<clipPath id="clip0_199_3580">
<rect width="104" height="104" fill="white"/>
</clipPath>
</defs>
</svg>
