<svg width="430" height="537" version="1.1" xmlns="http://www.w3.org/2000/svg" desc="Created with imagetracer.js version 1.2.6" ><path fill="rgb(191,191,191)" stroke="rgb(191,191,191)" stroke-width="1" opacity="1" d="M 308.5 91 L 311 91.5 L 308.5 92 L 308.5 91 Z " /><path fill="rgb(191,191,191)" stroke="rgb(191,191,191)" stroke-width="1" opacity="1" d="M 104.5 92 L 106 92.5 L 103.5 94 L 104.5 92 Z " /><path fill="rgb(191,191,191)" stroke="rgb(191,191,191)" stroke-width="1" opacity="1" d="M 312.5 92 L 315 93.5 L 313.5 93 L 312.5 92 Z " /><path fill="rgb(191,191,191)" stroke="rgb(191,191,191)" stroke-width="1" opacity="1" d="M 101.5 94 L 97 99.5 L 95.5 103 L 95 101.5 L 101.5 94 Z " /><path fill="rgb(191,191,191)" stroke="rgb(191,191,191)" stroke-width="1" opacity="1" d="M 316.5 94 Q 321.6 96.4 323 102.5 L 322 102.5 L 316.5 94 Z " /><path fill="rgb(191,191,191)" stroke="rgb(191,191,191)" stroke-width="1" opacity="1" d="M 110.5 104 L 112 104.5 L 107.5 108 L 110.5 104 Z " /><path fill="rgb(191,191,191)" stroke="rgb(191,191,191)" stroke-width="1" opacity="1" d="M 306.5 104 L 311 107.5 L 307.5 105 L 306.5 104 Z " /><path fill="rgb(191,191,191)" stroke="rgb(191,191,191)" stroke-width="1" opacity="1" d="M 93.5 107 L 94 112.5 L 93 112.5 L 93.5 107 Z " /><path fill="rgb(191,191,191)" stroke="rgb(191,191,191)" stroke-width="1" opacity="1" d="M 324.5 107 L 325 112.5 L 324 112.5 L 324.5 107 Z " /><path fill="rgb(191,191,191)" stroke="rgb(191,191,191)" stroke-width="1" opacity="1" d="M 108.5 114 L 109.5 116 L 108.5 114 Z " /><path fill="rgb(191,191,191)" stroke="rgb(191,191,191)" stroke-width="1" opacity="1" d="M 309.5 114 L 308.5 116 L 309.5 114 Z " /><path fill="rgb(191,191,191)" stroke="rgb(191,191,191)" stroke-width="1" opacity="1" d="M 112.5 116 L 306 116.5 L 112.5 117 L 112.5 116 Z " /><path fill="rgb(191,191,191)" stroke="rgb(191,191,191)" stroke-width="1" opacity="1" d="M 96.5 120 L 98.5 123 L 96.5 120 Z " /><path fill="rgb(191,191,191)" stroke="rgb(191,191,191)" stroke-width="1" opacity="1" d="M 321.5 120 L 319.5 123 L 321.5 120 Z " /><path fill="rgb(191,191,191)" stroke="rgb(191,191,191)" stroke-width="1" opacity="1" d="M 101.5 125 L 102.5 127 L 101.5 125 Z " /><path fill="rgb(191,191,191)" stroke="rgb(191,191,191)" stroke-width="1" opacity="1" d="M 316.5 125 L 315.5 127 L 316.5 125 Z " /><path fill="rgb(191,191,191)" stroke="rgb(191,191,191)" stroke-width="1" opacity="1" d="M 106.5 128 L 107 240.5 L 106 240.5 L 106.5 128 Z " /><path fill="rgb(191,191,191)" stroke="rgb(191,191,191)" stroke-width="1" opacity="1" d="M 311.5 128 L 312 240.5 L 311 240.5 L 311.5 128 Z " /><path fill="rgb(191,191,191)" stroke="rgb(191,191,191)" stroke-width="1" opacity="1" d="M 120.5 129 L 297.5 129 L 299 130.5 L 298.5 239 L 298 130 L 120 130 L 120 238.5 L 119 238.5 L 119 130.5 L 120.5 129 Z " /><path fill="rgb(191,191,191)" stroke="rgb(191,191,191)" stroke-width="1" opacity="1" d="M 138.5 136 L 141 136.5 L 136.5 138 L 136.5 137 L 138.5 136 Z " /><path fill="rgb(191,191,191)" stroke="rgb(191,191,191)" stroke-width="1" opacity="1" d="M 152.5 137 L 155 138.5 L 153.5 138 L 152.5 137 Z " /><path fill="rgb(191,191,191)" stroke="rgb(191,191,191)" stroke-width="1" opacity="1" d="M 134.5 138 L 132.5 141 L 134.5 138 Z " /><path fill="rgb(191,191,191)" stroke="rgb(191,191,191)" stroke-width="1" opacity="1" d="M 156.5 139 L 160.5 144 L 156.5 139 Z " /><path fill="rgb(191,191,191)" stroke="rgb(191,191,191)" stroke-width="1" opacity="1" d="M 130.5 142 L 129 144.5 L 127.5 147 L 128 145.5 L 130.5 142 Z " /><path fill="rgb(191,191,191)" stroke="rgb(191,191,191)" stroke-width="1" opacity="1" d="M 162.5 146 L 163 148 L 185 148.5 L 163.5 149 L 162.5 146 Z " /><path fill="rgb(191,191,191)" stroke="rgb(191,191,191)" stroke-width="1" opacity="1" d="M 125.5 152 L 126 157.5 L 125 157.5 L 125.5 152 Z " /><path fill="rgb(191,191,191)" stroke="rgb(191,191,191)" stroke-width="1" opacity="1" d="M 126.5 159 L 127 161.5 L 126 161.5 L 126.5 159 Z " /><path fill="rgb(191,191,191)" stroke="rgb(191,191,191)" stroke-width="1" opacity="1" d="M 186.5 160 L 185.5 162 L 163.5 162 L 163 163.5 L 161 164.5 L 163.5 161 L 185.5 161 L 186.5 160 Z " /><path fill="rgb(191,191,191)" stroke="rgb(191,191,191)" stroke-width="1" opacity="1" d="M 128.5 165 L 137 172.5 L 135.5 172 L 128.5 165 Z " /><path fill="rgb(191,191,191)" stroke="rgb(191,191,191)" stroke-width="1" opacity="1" d="M 160.5 166 L 155.5 172 L 149.5 174 L 149.5 173 Q 157.3 171.8 160.5 166 Z " /><path fill="rgb(191,191,191)" stroke="rgb(191,191,191)" stroke-width="1" opacity="1" d="M 138.5 173 L 141 173.5 L 138.5 174 L 138.5 173 Z " /><path fill="rgb(191,191,191)" stroke="rgb(191,191,191)" stroke-width="1" opacity="1" d="M 143.5 174 L 147 174.5 L 143.5 175 L 143.5 174 Z " /><path fill="rgb(191,191,191)" stroke="rgb(191,191,191)" stroke-width="1" opacity="1" d="M 120.5 241 L 122.5 244 L 120.5 241 Z " /><path fill="rgb(191,191,191)" stroke="rgb(191,191,191)" stroke-width="1" opacity="1" d="M 297.5 241 L 295.5 244 L 297.5 241 Z " /><path fill="rgb(191,191,191)" stroke="rgb(191,191,191)" stroke-width="1" opacity="1" d="M 125.5 244 L 293 244.5 L 125.5 245 L 125.5 244 Z " /><path fill="rgb(191,191,191)" stroke="rgb(191,191,191)" stroke-width="1" opacity="1" d="M 108.5 246 L 111 249.5 L 108 247.5 L 108.5 246 Z " /><path fill="rgb(191,191,191)" stroke="rgb(191,191,191)" stroke-width="1" opacity="1" d="M 309.5 246 L 310 247.5 L 307 249.5 L 309.5 246 Z " /><path fill="rgb(191,191,191)" stroke="rgb(191,191,191)" stroke-width="1" opacity="1" d="M 111.5 251 L 112.5 253 L 111.5 251 Z " /><path fill="rgb(191,191,191)" stroke="rgb(191,191,191)" stroke-width="1" opacity="1" d="M 306.5 251 L 305.5 253 L 306.5 251 Z " /><path fill="rgb(191,191,191)" stroke="rgb(191,191,191)" stroke-width="1" opacity="1" d="M 122.5 257 L 132 257.5 L 122.5 258 L 122.5 257 Z " /><path fill="rgb(191,191,191)" stroke="rgb(191,191,191)" stroke-width="1" opacity="1" d="M 145.5 257 L 273 257.5 L 145.5 258 L 145.5 257 Z " /><path fill="rgb(191,191,191)" stroke="rgb(191,191,191)" stroke-width="1" opacity="1" d="M 286.5 257 L 296 257.5 L 286.5 258 L 286.5 257 Z " /><path fill="rgb(191,191,191)" stroke="rgb(191,191,191)" stroke-width="1" opacity="1" d="M 119.5 270 L 123 270.5 L 119.5 271 L 119.5 270 Z " /><path fill="rgb(191,191,191)" stroke="rgb(191,191,191)" stroke-width="1" opacity="1" d="M 295.5 270 L 299 270.5 L 295.5 271 L 295.5 270 Z " /><path fill="rgb(191,191,191)" stroke="rgb(191,191,191)" stroke-width="1" opacity="1" d="M 109.5 274 L 108.5 276 L 104.5 279 L 107.5 275 L 109.5 274 Z " /><path fill="rgb(191,191,191)" stroke="rgb(191,191,191)" stroke-width="1" opacity="1" d="M 308.5 274 L 314 278.5 L 310.5 276 L 308.5 274 Z " /><path fill="rgb(191,191,191)" stroke="rgb(191,191,191)" stroke-width="1" opacity="1" d="M 102.5 280 L 99.5 284 L 102.5 280 Z " /><path fill="rgb(191,191,191)" stroke="rgb(191,191,191)" stroke-width="1" opacity="1" d="M 315.5 280 L 318.5 284 L 315.5 280 Z " /><path fill="rgb(191,191,191)" stroke="rgb(191,191,191)" stroke-width="1" opacity="1" d="M 122.5 283 L 125 283.5 L 122.5 284 L 122.5 283 Z " /><path fill="rgb(191,191,191)" stroke="rgb(191,191,191)" stroke-width="1" opacity="1" d="M 293.5 283 L 296 283.5 L 293.5 284 L 293.5 283 Z " /><path fill="rgb(191,191,191)" stroke="rgb(191,191,191)" stroke-width="1" opacity="1" d="M 116.5 285 L 115.5 287 L 116.5 285 Z " /><path fill="rgb(191,191,191)" stroke="rgb(191,191,191)" stroke-width="1" opacity="1" d="M 301.5 285 L 302.5 287 L 301.5 285 Z " /><path fill="rgb(191,191,191)" stroke="rgb(191,191,191)" stroke-width="1" opacity="1" d="M 97.5 287 L 97 288.5 L 96.5 290 L 96 288.5 L 97.5 287 Z " /><path fill="rgb(191,191,191)" stroke="rgb(191,191,191)" stroke-width="1" opacity="1" d="M 113.5 287 L 111.5 290 L 113.5 287 Z " /><path fill="rgb(191,191,191)" stroke="rgb(191,191,191)" stroke-width="1" opacity="1" d="M 304.5 287 L 306.5 290 L 304.5 287 Z " /><path fill="rgb(191,191,191)" stroke="rgb(191,191,191)" stroke-width="1" opacity="1" d="M 320.5 287 L 322 289.5 L 321 289.5 L 320.5 287 Z " /><path fill="rgb(191,191,191)" stroke="rgb(191,191,191)" stroke-width="1" opacity="1" d="M 108.5 294 L 109.5 295 L 308.5 295 L 310 294.5 L 309.5 296 L 108 296 L 108.5 294 Z " /><path fill="rgb(191,191,191)" stroke="rgb(191,191,191)" stroke-width="1" opacity="1" d="M 93.5 299 L 94 303.5 L 93 303.5 L 93.5 299 Z " /><path fill="rgb(191,191,191)" stroke="rgb(191,191,191)" stroke-width="1" opacity="1" d="M 324.5 299 L 325 303.5 L 324 303.5 L 324.5 299 Z " /><path fill="rgb(191,191,191)" stroke="rgb(191,191,191)" stroke-width="1" opacity="1" d="M 94.5 305 L 100 308.5 L 97.5 309 L 94.5 305 Z " /><path fill="rgb(191,191,191)" stroke="rgb(191,191,191)" stroke-width="1" opacity="1" d="M 323.5 305 L 320.5 309 L 318 308.5 L 323.5 305 Z " /><path fill="rgb(191,191,191)" stroke="rgb(191,191,191)" stroke-width="1" opacity="1" d="M 113.5 308 L 305 308.5 L 113.5 309 L 113.5 308 Z " /><path fill="rgb(191,191,191)" stroke="rgb(191,191,191)" stroke-width="1" opacity="1" d="M 113.5 311 L 114 318.5 L 113 318.5 L 113.5 311 Z " /><path fill="rgb(191,191,191)" stroke="rgb(191,191,191)" stroke-width="1" opacity="1" d="M 304.5 311 L 305 318.5 L 304 318.5 L 304.5 311 Z " /><path fill="rgb(191,191,191)" stroke="rgb(191,191,191)" stroke-width="1" opacity="1" d="M 100.5 316 L 101 320.5 L 100 320.5 L 100.5 316 Z " /><path fill="rgb(191,191,191)" stroke="rgb(191,191,191)" stroke-width="1" opacity="1" d="M 317.5 316 L 318 320.5 L 317 320.5 L 317.5 316 Z " /><path fill="rgb(191,191,191)" stroke="rgb(191,191,191)" stroke-width="1" opacity="1" d="M 114.5 322 L 115 325.5 L 114 325.5 L 114.5 322 Z " /><path fill="rgb(191,191,191)" stroke="rgb(191,191,191)" stroke-width="1" opacity="1" d="M 303.5 322 L 304 325.5 L 303 325.5 L 303.5 322 Z " /><path fill="rgb(191,191,191)" stroke="rgb(191,191,191)" stroke-width="1" opacity="1" d="M 101.5 325 L 102 327.5 L 101 327.5 L 101.5 325 Z " /><path fill="rgb(191,191,191)" stroke="rgb(191,191,191)" stroke-width="1" opacity="1" d="M 316.5 325 L 317 327.5 L 316 327.5 L 316.5 325 Z " /><path fill="rgb(191,191,191)" stroke="rgb(191,191,191)" stroke-width="1" opacity="1" d="M 115.5 328 L 116 330.5 L 115 330.5 L 115.5 328 Z " /><path fill="rgb(191,191,191)" stroke="rgb(191,191,191)" stroke-width="1" opacity="1" d="M 302.5 328 L 303 330.5 L 302 330.5 L 302.5 328 Z " /><path fill="rgb(191,191,191)" stroke="rgb(191,191,191)" stroke-width="1" opacity="1" d="M 102.5 330 L 103 333.5 L 102 333.5 L 102.5 330 Z " /><path fill="rgb(191,191,191)" stroke="rgb(191,191,191)" stroke-width="1" opacity="1" d="M 315.5 330 L 316 333.5 L 315 333.5 L 315.5 330 Z " /><path fill="rgb(191,191,191)" stroke="rgb(191,191,191)" stroke-width="1" opacity="1" d="M 104.5 338 L 105 340.5 L 104 340.5 L 104.5 338 Z " /><path fill="rgb(191,191,191)" stroke="rgb(191,191,191)" stroke-width="1" opacity="1" d="M 313.5 338 L 314 340.5 L 313 340.5 L 313.5 338 Z " /><path fill="rgb(191,191,191)" stroke="rgb(191,191,191)" stroke-width="1" opacity="1" d="M 119.5 342 L 121 345.5 L 120 345.5 L 119.5 342 Z " /><path fill="rgb(191,191,191)" stroke="rgb(191,191,191)" stroke-width="1" opacity="1" d="M 298.5 342 L 299 343.5 L 297.5 346 L 297 344.5 L 298.5 342 Z " /><path fill="rgb(191,191,191)" stroke="rgb(191,191,191)" stroke-width="1" opacity="1" d="M 121.5 347 L 125 353.5 L 123 352.5 L 121.5 347 Z " /><path fill="rgb(191,191,191)" stroke="rgb(191,191,191)" stroke-width="1" opacity="1" d="M 296.5 347 L 297 348.5 L 293.5 354 L 294 352.5 L 296.5 347 Z " /><path fill="rgb(191,191,191)" stroke="rgb(191,191,191)" stroke-width="1" opacity="1" d="M 126.5 357 L 129 360.5 L 127 359.5 L 126.5 357 Z " /><path fill="rgb(191,191,191)" stroke="rgb(191,191,191)" stroke-width="1" opacity="1" d="M 291.5 357 L 291 358.5 L 289.5 361 L 290 359.5 L 291.5 357 Z " /><path fill="rgb(191,191,191)" stroke="rgb(191,191,191)" stroke-width="1" opacity="1" d="M 113.5 361 L 116 364.5 L 114 363.5 L 113.5 361 Z " /><path fill="rgb(191,191,191)" stroke="rgb(191,191,191)" stroke-width="1" opacity="1" d="M 304.5 361 L 304 362.5 L 302.5 365 L 303 363.5 L 304.5 361 Z " /><path fill="rgb(191,191,191)" stroke="rgb(191,191,191)" stroke-width="1" opacity="1" d="M 129.5 362 L 130.5 364 L 129.5 362 Z " /><path fill="rgb(191,191,191)" stroke="rgb(191,191,191)" stroke-width="1" opacity="1" d="M 288.5 362 L 287.5 364 L 288.5 362 Z " /><path fill="rgb(191,191,191)" stroke="rgb(191,191,191)" stroke-width="1" opacity="1" d="M 116.5 366 L 120 370.5 L 117 368.5 L 116.5 366 Z " /><path fill="rgb(191,191,191)" stroke="rgb(191,191,191)" stroke-width="1" opacity="1" d="M 132.5 366 L 134.5 369 L 132.5 366 Z " /><path fill="rgb(191,191,191)" stroke="rgb(191,191,191)" stroke-width="1" opacity="1" d="M 285.5 366 L 283.5 369 L 285.5 366 Z " /><path fill="rgb(191,191,191)" stroke="rgb(191,191,191)" stroke-width="1" opacity="1" d="M 301.5 366 L 301 367.5 L 298.5 371 L 300 368.5 L 301.5 366 Z " /><path fill="rgb(191,191,191)" stroke="rgb(191,191,191)" stroke-width="1" opacity="1" d="M 135.5 370 L 147.5 383 L 135.5 370 Z " /><path fill="rgb(191,191,191)" stroke="rgb(191,191,191)" stroke-width="1" opacity="1" d="M 282.5 370 L 270.5 383 L 282.5 370 Z " /><path fill="rgb(191,191,191)" stroke="rgb(191,191,191)" stroke-width="1" opacity="1" d="M 120.5 372 L 122.5 375 L 120.5 372 Z " /><path fill="rgb(191,191,191)" stroke="rgb(191,191,191)" stroke-width="1" opacity="1" d="M 297.5 372 L 295.5 375 L 297.5 372 Z " /><path fill="rgb(191,191,191)" stroke="rgb(191,191,191)" stroke-width="1" opacity="1" d="M 123.5 376 L 126.5 380 L 123.5 376 Z " /><path fill="rgb(191,191,191)" stroke="rgb(191,191,191)" stroke-width="1" opacity="1" d="M 294.5 376 L 291.5 380 L 294.5 376 Z " /><path fill="rgb(191,191,191)" stroke="rgb(191,191,191)" stroke-width="1" opacity="1" d="M 129.5 383 L 132.5 387 L 129.5 383 Z " /><path fill="rgb(191,191,191)" stroke="rgb(191,191,191)" stroke-width="1" opacity="1" d="M 149.5 383 L 151.5 386 L 149.5 383 Z " /><path fill="rgb(191,191,191)" stroke="rgb(191,191,191)" stroke-width="1" opacity="1" d="M 268.5 383 L 266.5 386 L 268.5 383 Z " /><path fill="rgb(191,191,191)" stroke="rgb(191,191,191)" stroke-width="1" opacity="1" d="M 288.5 383 L 285.5 387 L 288.5 383 Z " /><path fill="rgb(191,191,191)" stroke="rgb(191,191,191)" stroke-width="1" opacity="1" d="M 153.5 386 L 154.5 388 L 153.5 386 Z " /><path fill="rgb(191,191,191)" stroke="rgb(191,191,191)" stroke-width="1" opacity="1" d="M 264.5 386 L 263.5 388 L 264.5 386 Z " /><path fill="rgb(191,191,191)" stroke="rgb(191,191,191)" stroke-width="1" opacity="1" d="M 156.5 388 L 157.5 390 L 156.5 388 Z " /><path fill="rgb(191,191,191)" stroke="rgb(191,191,191)" stroke-width="1" opacity="1" d="M 261.5 388 L 260.5 390 L 261.5 388 Z " /><path fill="rgb(191,191,191)" stroke="rgb(191,191,191)" stroke-width="1" opacity="1" d="M 137.5 390 L 140.5 394 L 137.5 390 Z " /><path fill="rgb(191,191,191)" stroke="rgb(191,191,191)" stroke-width="1" opacity="1" d="M 159.5 390 L 165 393.5 L 163.5 393 Q 159.5 392.5 159.5 390 Z " /><path fill="rgb(191,191,191)" stroke="rgb(191,191,191)" stroke-width="1" opacity="1" d="M 258.5 390 L 257.5 392 L 253.5 394 L 254.5 392 L 258.5 390 Z " /><path fill="rgb(191,191,191)" stroke="rgb(191,191,191)" stroke-width="1" opacity="1" d="M 280.5 390 L 277.5 394 L 280.5 390 Z " /><path fill="rgb(191,191,191)" stroke="rgb(191,191,191)" stroke-width="1" opacity="1" d="M 143.5 395 L 144.5 397 L 143.5 395 Z " /><path fill="rgb(191,191,191)" stroke="rgb(191,191,191)" stroke-width="1" opacity="1" d="M 168.5 395 L 172 396.5 L 170.5 397 L 168.5 395 Z " /><path fill="rgb(191,191,191)" stroke="rgb(191,191,191)" stroke-width="1" opacity="1" d="M 248.5 395 L 250 395.5 L 244.5 398 L 244.5 397 L 248.5 395 Z " /><path fill="rgb(191,191,191)" stroke="rgb(191,191,191)" stroke-width="1" opacity="1" d="M 274.5 395 L 273.5 397 L 274.5 395 Z " /><path fill="rgb(191,191,191)" stroke="rgb(191,191,191)" stroke-width="1" opacity="1" d="M 146.5 397 L 147.5 399 L 146.5 397 Z " /><path fill="rgb(191,191,191)" stroke="rgb(191,191,191)" stroke-width="1" opacity="1" d="M 271.5 397 L 270.5 399 L 271.5 397 Z " /><path fill="rgb(191,191,191)" stroke="rgb(191,191,191)" stroke-width="1" opacity="1" d="M 149.5 399 L 150.5 401 L 149.5 399 Z " /><path fill="rgb(191,191,191)" stroke="rgb(191,191,191)" stroke-width="1" opacity="1" d="M 268.5 399 L 267.5 401 L 268.5 399 Z " /><path fill="rgb(191,191,191)" stroke="rgb(191,191,191)" stroke-width="1" opacity="1" d="M 152.5 401 L 156 403.5 L 154.5 403 L 152.5 401 Z " /><path fill="rgb(191,191,191)" stroke="rgb(191,191,191)" stroke-width="1" opacity="1" d="M 185.5 401 L 188 401.5 L 185.5 402 L 185.5 401 Z " /><path fill="rgb(191,191,191)" stroke="rgb(191,191,191)" stroke-width="1" opacity="1" d="M 231.5 401 L 234 401.5 L 231.5 402 L 231.5 401 Z " /><path fill="rgb(191,191,191)" stroke="rgb(191,191,191)" stroke-width="1" opacity="1" d="M 265.5 401 L 264.5 403 L 262.5 404 L 263.5 402 L 265.5 401 Z " /><path fill="rgb(191,191,191)" stroke="rgb(191,191,191)" stroke-width="1" opacity="1" d="M 194.5 403 L 199 403.5 L 194.5 404 L 194.5 403 Z " /><path fill="rgb(191,191,191)" stroke="rgb(191,191,191)" stroke-width="1" opacity="1" d="M 219.5 403 L 224 403.5 L 219.5 404 L 219.5 403 Z " /><path fill="rgb(191,191,191)" stroke="rgb(191,191,191)" stroke-width="1" opacity="1" d="M 203.5 404 L 215 404.5 L 203.5 405 L 203.5 404 Z " /><path fill="rgb(191,191,191)" stroke="rgb(191,191,191)" stroke-width="1" opacity="1" d="M 177 413 L 181 413.5 L 178 414 L 177.5 462 L 177 413 Z " /><path fill="rgb(191,191,191)" stroke="rgb(191,191,191)" stroke-width="1" opacity="1" d="M 237.5 413 L 241 413.5 L 241 461.5 L 240 461.5 L 240 414.5 L 237.5 414 L 237.5 413 Z " /><path fill="rgb(191,191,191)" stroke="rgb(191,191,191)" stroke-width="1" opacity="1" d="M 182.5 414 L 185 414.5 L 182.5 415 L 182.5 414 Z " /><path fill="rgb(191,191,191)" stroke="rgb(191,191,191)" stroke-width="1" opacity="1" d="M 233.5 414 L 236 414.5 L 233.5 415 L 233.5 414 Z " /><path fill="rgb(191,191,191)" stroke="rgb(191,191,191)" stroke-width="1" opacity="1" d="M 192.5 416 L 197 416.5 L 192.5 417 L 192.5 416 Z " /><path fill="rgb(191,191,191)" stroke="rgb(191,191,191)" stroke-width="1" opacity="1" d="M 221.5 416 L 226 416.5 L 221.5 417 L 221.5 416 Z " /><path fill="rgb(191,191,191)" stroke="rgb(191,191,191)" stroke-width="1" opacity="1" d="M 201.5 417 L 217 417.5 L 201.5 418 L 201.5 417 Z " /><path fill="rgb(191,191,191)" stroke="rgb(191,191,191)" stroke-width="1" opacity="1" d="M 164.5 469 L 167.5 474 L 169 474.5 L 167.5 475 Q 162.7 473.7 164.5 469 Z " /><path fill="rgb(191,191,191)" stroke="rgb(191,191,191)" stroke-width="1" opacity="1" d="M 253.5 469 L 254 471.5 L 249.5 475 L 249.5 474 L 253 471.5 L 253.5 469 Z " /><path fill="rgb(247,247,247)" stroke="rgb(247,247,247)" stroke-width="1" opacity="1" d="M 0 0 L 430 0 L 430 537 L 0 537 L 0 0 Z M 108 91 L 102 94 Q 95 98 93 108 L 93 113 L 96 121 Q 99 127 106 128 L 106 241 L 108 248 L 111 252 L 123 258 L 132 258 L 132 270 L 120 270 L 108 275 L 96 289 L 93 300 L 94 306 Q 95 310 100 309 L 100 321 L 101 322 L 102 334 L 108 352 Q 116 370 129 384 L 134 387 L 135 390 L 154 403 L 163 407 L 164 409 L 164 472 L 168 475 L 251 475 L 254 472 L 254 409 Q 270 401 282 390 Q 284 391 283 389 L 286 387 Q 301 373 310 352 L 316 334 L 317 322 L 318 321 L 318 310 L 321 309 L 325 304 Q 325 291 319 284 Q 312 273 299 270 L 286 270 L 286 258 Q 299 260 306 253 L 310 248 L 312 241 L 312 128 L 316 127 Q 323 122 325 113 L 325 108 L 322 100 Q 318 94 311 91 L 108 91 Z " /><path fill="rgb(247,247,247)" stroke="rgb(247,247,247)" stroke-width="1" opacity="1" d="M 112.5 104 L 305.5 104 L 311 108.5 Q 312 115 307.5 116 L 110.5 116 L 107 112.5 Q 106 106 110.5 105 L 112.5 104 Z " /><path fill="rgb(247,247,247)" stroke="rgb(247,247,247)" stroke-width="1" opacity="1" d="M 120 130 L 298 130 L 298 240.5 L 294.5 244 L 123.5 244 L 120 240.5 L 120 130 Z M 145 135 L 135 138 Q 127 143 125 153 L 125 158 L 128 166 Q 133 173 144 175 L 152 174 L 156 172 L 163 164 L 164 162 L 186 162 L 190 158 L 190 153 L 185 148 L 163 148 L 161 144 L 154 137 L 145 135 Z " /><path fill="rgb(247,247,247)" stroke="rgb(247,247,247)" stroke-width="1" opacity="1" d="M 143.5 149 Q 148.6 148.4 150 151.5 L 151 156.5 L 148.5 160 L 143.5 161 L 140 158.5 L 139 153.5 L 141.5 150 L 143.5 149 Z " /><path fill="rgb(247,247,247)" stroke="rgb(247,247,247)" stroke-width="1" opacity="1" d="M 145 258 L 272.5 258 L 273 258.5 L 273 268.5 L 271.5 270 L 146.5 270 L 145 268.5 L 145 258 Z " /><path fill="rgb(247,247,247)" stroke="rgb(247,247,247)" stroke-width="1" opacity="1" d="M 125.5 283 L 292.5 283 L 300.5 285 L 308 291.5 L 309 295 L 109.5 295 L 109 293.5 L 114.5 287 L 125.5 283 Z " /><path fill="rgb(247,247,247)" stroke="rgb(247,247,247)" stroke-width="1" opacity="1" d="M 113 309 L 304.5 309 L 305 310.5 L 304 311.5 L 304 321.5 L 302 332.5 L 297 346.5 Q 287.4 368.9 269.5 383 Q 256.2 393.7 238.5 400 L 218.5 404 L 199.5 404 L 183.5 401 L 165.5 394 Q 147.3 384.7 135 369.5 Q 125 357.5 119 341.5 L 115 327.5 L 114 311.5 L 113 309 Z " /><path fill="rgb(247,247,247)" stroke="rgb(247,247,247)" stroke-width="1" opacity="1" d="M 178 414 L 201.5 418 L 216.5 418 L 240 414 L 240 462 L 178 462 L 178 414 Z " /><path fill="rgb(3,3,3)" stroke="rgb(3,3,3)" stroke-width="1" opacity="1" d="M 109.5 91 L 307.5 91 Q 316.8 92.8 321 99.5 Q 325.2 104.3 324 114.5 L 317.5 125 L 311 128 L 311 242.5 Q 308.9 249.9 303.5 254 Q 297.8 259 286 257 L 286 270 L 294.5 270 L 305.5 273 L 315 279 L 322 290.5 Q 325 295.5 324 304.5 Q 322.7 308.8 318 308 L 317 324.5 L 315 334.5 L 309 352.5 Q 298.7 374.7 281.5 390 Q 269.6 400.9 254 407 L 254 468.5 L 250.5 474 L 248.5 475 L 169.5 475 L 165 471.5 L 164 468.5 L 164 407 Q 141.8 397.9 127 380.5 Q 114.6 366.4 107 347.5 L 101 324.5 L 100 308 Q 95.3 308.8 94 304.5 Q 93 295.5 96 290.5 L 103 279 Q 108.9 273.7 118.5 271 L 132 270 L 132 257 L 120.5 257 L 111 250.5 L 107 242.5 L 107 128 L 99 123.5 Q 92.4 118.6 94 105.5 Q 96.6 98.1 102.5 94 L 109.5 91 Z M 111 104 L 107 108 L 108 115 L 113 117 L 306 117 L 309 116 Q 312 114 311 108 L 308 104 L 111 104 Z M 121 129 L 119 131 L 119 239 L 120 242 L 126 245 L 293 245 L 296 244 L 299 239 L 299 131 L 298 129 L 121 129 Z M 145 257 L 145 270 L 146 270 L 273 270 L 273 258 L 273 257 L 145 257 Z M 123 283 L 114 287 L 108 295 L 109 296 L 310 296 L 307 290 Q 303 284 296 283 L 123 283 Z M 113 308 L 114 326 L 119 344 Q 125 359 135 371 Q 146 383 161 392 L 182 401 L 204 405 L 215 405 L 216 404 L 224 404 L 234 402 Q 255 396 271 383 Q 286 371 295 353 L 301 338 L 305 319 L 305 309 L 305 308 L 113 308 Z M 177 413 L 177 462 L 241 462 L 241 413 L 221 417 L 198 417 L 177 413 Z " /><path fill="rgb(3,3,3)" stroke="rgb(3,3,3)" stroke-width="1" opacity="1" d="M 141.5 136 Q 157.1 135.4 162 145.5 L 163.5 149 L 185.5 149 L 189 151.5 L 190 155.5 L 187.5 160 L 185.5 161 L 163.5 161 L 162 162.5 Q 160.6 168.6 155.5 171 Q 151 175 141.5 174 Q 132.4 171.5 128 164.5 Q 125 159.5 126 150.5 L 131 141 L 141.5 136 Z M 143 149 L 140 150 L 139 153 Q 138 158 140 160 L 143 161 Q 148 162 150 160 L 151 158 Q 152 152 150 150 Q 148 148 143 149 Z " /></svg>