<svg width="13" height="6" viewBox="0 0 13 6" fill="none" xmlns="http://www.w3.org/2000/svg">
<path d="M12.5 0.531478C12.5004 0.461936 12.4878 0.392997 12.4629 0.328617C12.438 0.264236 12.4013 0.205679 12.355 0.156304C12.3085 0.106777 12.2533 0.0674662 12.1923 0.0406393C12.1314 0.0138124 12.0661 5.05569e-07 12.0001 5.02684e-07C11.9341 4.998e-07 11.8687 0.0138124 11.8078 0.0406393C11.7469 0.0674662 11.6916 0.106777 11.6451 0.156304L7.56084 4.47345C7.27963 4.77031 6.89845 4.93705 6.50102 4.93705C6.10358 4.93705 5.7224 4.77031 5.4412 4.47345L1.3569 0.156304C1.26276 0.0568017 1.13509 0.000901819 1.00196 0.000901813C0.868832 0.000901807 0.741156 0.0568016 0.647021 0.156304C0.552885 0.255806 0.5 0.39076 0.5 0.531478C0.5 0.672195 0.552885 0.807149 0.647021 0.906652L4.73132 5.22379C4.96351 5.46984 5.23934 5.66505 5.54301 5.79824C5.84669 5.93144 6.17224 6 6.50102 6C6.8298 6 7.15535 5.93144 7.45902 5.79824C7.7627 5.66505 8.03853 5.46984 8.27072 5.22379L12.355 0.906652C12.4013 0.857277 12.438 0.79872 12.4629 0.73434C12.4878 0.669959 12.5004 0.601021 12.5 0.531478Z" fill="#4B4B4B"/>
</svg>
