<svg width="13" height="6" viewBox="0 0 13 6" fill="none" xmlns="http://www.w3.org/2000/svg">
<rect width="13" height="6" fill="#1E1E1E"/>
<g id="Desktop - 35">
<rect width="1440" height="1723" transform="translate(-265 -1013)" fill="white"/>
<g id="Frame 246">
<g id="Frame 244">
<g id="Frame 224">
<rect x="-139.5" y="-107.5" width="352" height="247" rx="9.5" fill="white"/>
<rect x="-139.5" y="-107.5" width="352" height="247" rx="9.5" stroke="#BEBEBE"/>
<g id="Frame 241">
<g id="Frame 256">
<g id="Frame 235">
<rect x="-84.5" y="-24.5" width="112.5" height="55" rx="9.5" fill="white"/>
<rect x="-84.5" y="-24.5" width="112.5" height="55" rx="9.5" stroke="#9E9E9E"/>
<path id="Vector" d="M0.500009 5.46852C0.499629 5.53806 0.512239 5.607 0.537117 5.67138C0.561995 5.73576 0.598652 5.79432 0.644984 5.8437C0.691458 5.89322 0.746749 5.93253 0.807668 5.95936C0.868587 5.98619 0.933928 6 0.999924 6C1.06592 6 1.13126 5.98619 1.19218 5.95936C1.2531 5.93253 1.30839 5.89322 1.35486 5.8437L5.43916 1.52655C5.72037 1.22969 6.10155 1.06295 6.49898 1.06295C6.89642 1.06295 7.2776 1.22969 7.5588 1.52656L11.6431 5.8437C11.7372 5.9432 11.8649 5.9991 11.998 5.9991C12.1312 5.9991 12.2588 5.9432 12.353 5.8437C12.4471 5.74419 12.5 5.60924 12.5 5.46852C12.5 5.3278 12.4471 5.19285 12.353 5.09335L8.26868 0.776207C8.03649 0.530161 7.76066 0.33495 7.45699 0.201755C7.15331 0.068561 6.82776 4.09196e-07 6.49898 4.05276e-07C6.1702 4.01355e-07 5.84465 0.068561 5.54098 0.201755C5.2373 0.33495 4.96147 0.530161 4.72928 0.776207L0.644984 5.09335C0.598652 5.14272 0.561995 5.20128 0.537117 5.26566C0.512239 5.33004 0.499629 5.39898 0.500009 5.46852Z" fill="#BEBEBE"/>
</g>
</g>
</g>
</g>
</g>
</g>
</g>
</svg>
