<svg width="24" height="25" viewBox="0 0 24 25" fill="none" xmlns="http://www.w3.org/2000/svg">
<g clip-path="url(#clip0_85_915)">
<path d="M6.99994 24.5C6.86833 24.5007 6.73787 24.4755 6.61603 24.4257C6.4942 24.376 6.38338 24.3027 6.28994 24.21C6.19621 24.117 6.12182 24.0064 6.07105 23.8846C6.02028 23.7627 5.99414 23.632 5.99414 23.5C5.99414 23.368 6.02028 23.2373 6.07105 23.1154C6.12182 22.9935 6.19621 22.8829 6.28994 22.79L14.4599 14.62C15.0217 14.0575 15.3373 13.295 15.3373 12.5C15.3373 11.705 15.0217 10.9425 14.4599 10.38L6.28994 2.21C6.10164 2.0217 5.99585 1.7663 5.99585 1.5C5.99585 1.2337 6.10164 0.978305 6.28994 0.790002C6.47824 0.601698 6.73364 0.495911 6.99994 0.495911C7.26624 0.495911 7.52164 0.601698 7.70994 0.790002L15.8799 8.95999C16.3456 9.42445 16.715 9.9762 16.9671 10.5837C17.2191 11.1911 17.3489 11.8423 17.3489 12.5C17.3489 13.1577 17.2191 13.8089 16.9671 14.4163C16.715 15.0238 16.3456 15.5755 15.8799 16.04L7.70994 24.21C7.6165 24.3027 7.50568 24.376 7.38385 24.4257C7.26201 24.4755 7.13155 24.5007 6.99994 24.5Z" fill="#0B0B0B"/>
</g>
<defs>
<clipPath id="clip0_85_915">
<rect width="24" height="24" fill="white" transform="translate(0 0.5)"/>
</clipPath>
</defs>
</svg>
