<svg width="25" height="25" viewBox="0 0 25 25" fill="none" xmlns="http://www.w3.org/2000/svg">
<g clip-path="url(#clip0_89_1172)">
<path d="M17.5001 0.500027C17.6317 0.499266 17.7621 0.52449 17.884 0.574255C18.0058 0.62402 18.1166 0.697346 18.2101 0.790028C18.3038 0.88299 18.3782 0.993589 18.429 1.11545C18.4797 1.23731 18.5059 1.36801 18.5059 1.50002C18.5059 1.63204 18.4797 1.76274 18.429 1.8846C18.3782 2.00646 18.3038 2.11706 18.2101 2.21002L10.0401 10.38C9.47826 10.9425 9.1627 11.705 9.1627 12.5C9.1627 13.295 9.47826 14.0575 10.0401 14.62L18.2101 22.79C18.3984 22.9783 18.5042 23.2337 18.5042 23.5C18.5042 23.7663 18.3984 24.0217 18.2101 24.21C18.0218 24.3983 17.7664 24.5041 17.5001 24.5041C17.2338 24.5041 16.9784 24.3983 16.7901 24.21L8.62006 16.04C8.15443 15.5756 7.785 15.0238 7.53294 14.4163C7.28087 13.8089 7.15112 13.1577 7.15112 12.5C7.15112 11.8423 7.28087 11.1911 7.53294 10.5837C7.785 9.97623 8.15443 9.42447 8.62006 8.96002L16.7901 0.790027C16.8835 0.697346 16.9943 0.624019 17.1162 0.574255C17.238 0.52449 17.3685 0.499266 17.5001 0.500027Z" fill="#374957"/>
</g>
<defs>
<clipPath id="clip0_89_1172">
<rect width="24" height="24" fill="white" transform="translate(24.5 24.5) rotate(-180)"/>
</clipPath>
</defs>
</svg>
