<svg width="151" height="62" viewBox="0 0 151 62" fill="none" xmlns="http://www.w3.org/2000/svg">
<rect x="0.5" y="0.5" width="150" height="61" rx="10" fill="#00AEEF"/>
<path d="M66.1016 21.9219C66.0898 27.1484 62.3516 30.8984 56.3516 32.6094L55.5781 31.1562C60.5586 29.75 63.7461 26.9844 64.1445 23.4453H56.6562V21.9219H66.1016ZM59.0938 41.1172V33.3594H72.6172V41.1172H59.0938ZM60.875 39.6172H70.7891V34.8359H60.875V39.6172ZM66.1484 27.5V25.9531H70.7656V20.5859H72.6172V32.4688H70.7656V27.5H66.1484ZM82.2969 24.6406C82.3086 27.0195 83.8906 29.4102 86.5625 30.4531L85.5781 31.8828C83.5977 31.0742 82.168 29.5391 81.4297 27.6992C80.6562 29.7148 79.1562 31.4961 77.1172 32.3984L76.1094 30.9688C78.8516 29.75 80.5273 27.0195 80.5391 24.6406V21.8516H82.2969V24.6406ZM79.7422 35.8438V34.3203H93.7812V41.3984H91.9766V35.8438H79.7422ZM87.5234 33.0547V20.9609H89.2578V26.0234H92.0234V20.5859H93.7812V33.1719H92.0234V27.5703H89.2578V33.0547H87.5234Z" fill="white"/>
</svg>
